<svg xmlns="http://www.w3.org/2000/svg" fill="none" viewBox="0 0 34 29">
  <g fill="#FF5400" clip-path="url(#a)">
    <path d="M28.014 11.41h-1.836a8.735 8.735 0 0 0-15.477-1.958 1.654 1.654 0 0 0 1.392 2.562h2.22v4.697H12.13a1.656 1.656 0 0 0-1.381 2.58 8.732 8.732 0 0 0 15.405-1.975h1.85A10.487 10.487 0 0 1 17.95 24.82c-5.711 0-13.224-5.43-16.988-8.477a2.597 2.597 0 0 1 0-4.025c3.737-3.046 11.197-8.466 16.995-8.466a10.484 10.484 0 0 1 10.057 7.557Z"/>
    <path d="M2.652 13.25a1.168 1.168 0 0 0 0 2.224L4.32 16.71h24.075c.75 0 1.498-.088 2.227-.264a8.875 8.875 0 0 0 2.058-.792 1.423 1.423 0 0 0 0-2.594 8.879 8.879 0 0 0-2.058-.793 9.511 9.511 0 0 0-2.227-.264H4.32L2.652 13.25Z"/>
    <path d="M24.97 12.664 15.877.745A1.902 1.902 0 0 0 14.365 0h-.911l3.843 12.664h7.674ZM24.97 16.06l-9.094 11.92a1.902 1.902 0 0 1-1.511.744h-.911l3.843-12.663h7.674Z"/>
    <path d="M15.03 26.582a.806.806 0 0 1 .793-.808h1.474a.808.808 0 0 1 0 1.616h-1.474a.806.806 0 0 1-.792-.808ZM15.03 2.142a.806.806 0 0 1 .793-.808h1.474a.808.808 0 0 1 0 1.617h-1.474a.806.806 0 0 1-.792-.809ZM20.216 19.674a.81.81 0 0 1 .808-.821h1.472a.808.808 0 0 1 0 1.616h-1.472a.808.808 0 0 1-.808-.795ZM20.216 9.05a.808.808 0 0 1 .808-.808h1.472a.808.808 0 1 1 0 1.616h-1.472a.808.808 0 0 1-.808-.808Z"/>
  </g>
  <defs>
    <clipPath id="a">
      <path fill="#fff" d="M33.516 28.724V0H0v28.724z"/>
    </clipPath>
  </defs>
</svg>