<svg xmlns="http://www.w3.org/2000/svg" fill="none" viewBox="0 0 20 17">
  <path fill="#131318" d="M19.888 2.656a9.116 9.116 0 0 1-2.362.66c.829-.495 1.492-1.279 1.782-2.227a9.006 9.006 0 0 1-2.61.99A4.14 4.14 0 0 0 13.714.8c-2.237 0-4.06 1.814-4.06 4.041 0 .33.041.619.124.907a11.627 11.627 0 0 1-8.41-4.247c-.332.619-.54 1.278-.54 2.02 0 1.403.705 2.64 1.824 3.382a4.812 4.812 0 0 1-1.865-.495v.041a4.079 4.079 0 0 0 3.273 4 4.54 4.54 0 0 1-1.077.124c-.248 0-.538-.042-.787-.083.539 1.608 2.03 2.804 3.812 2.804-1.409 1.072-3.15 1.732-5.055 1.732-.332 0-.663 0-.953-.041a11.57 11.57 0 0 0 6.256 1.814c7.5 0 11.602-6.185 11.602-11.546v-.536a7.422 7.422 0 0 0 2.03-2.061Z"/>
</svg>